<svg width="64" height="64" viewBox="0 0 64 64" fill="none" xmlns="http://www.w3.org/2000/svg">
  <defs>
    <radialGradient id="bg" cx="0" cy="0" r="1" gradientUnits="userSpaceOnUse" gradientTransform="translate(32 32) rotate(90) scale(28)">
      <stop offset="0" stop-color="#0F2132"/>
      <stop offset="1" stop-color="#071018"/>
    </radialGradient>
    <radialGradient id="core" cx="0" cy="0" r="1" gradientUnits="userSpaceOnUse" gradientTransform="translate(32 32) rotate(90) scale(13)">
      <stop offset="0" stop-color="#63E8FF"/>
      <stop offset="0.5" stop-color="#1DB6E9"/>
      <stop offset="1" stop-color="#0A6BB8"/>
    </radialGradient>
  </defs>

  <g stroke="#18BEE0" stroke-width="1.6" stroke-linecap="round" opacity="0.95">
    <path d="M32 24V16"/>
    <path d="M32 40V48"/>
    <path d="M24 32H16"/>
    <path d="M40 32H48"/>
    <path d="M26.5 26.5L21 21"/>
    <path d="M37.5 26.5L43 21"/>
    <path d="M26.5 37.5L21 43"/>
    <path d="M37.5 37.5L43 43"/>
  </g>

  <g fill="#18BEE0">
    <circle cx="32" cy="16" r="1.9"/>
    <circle cx="48" cy="32" r="1.9"/>
    <circle cx="32" cy="48" r="1.9"/>
    <circle cx="16" cy="32" r="1.9"/>
    <circle cx="21" cy="21" r="1.7"/>
    <circle cx="43" cy="21" r="1.7"/>
    <circle cx="21" cy="43" r="1.7"/>
    <circle cx="43" cy="43" r="1.7"/>
  </g>

  <circle cx="32" cy="32" r="11" fill="url(#core)"/>
  <circle cx="32" cy="32" r="11" stroke="#18BEE0" stroke-width="1.4"/>
  <circle cx="28" cy="29" r="3.2" fill="#FFFFFF" opacity="0.22"/>
  <path d="M27.5 31.5H36.5" stroke="#EAFBFF" stroke-width="1.6" stroke-linecap="round"/>
  <path d="M29 34.5H35" stroke="#EAFBFF" stroke-width="1.6" stroke-linecap="round"/>
</svg>
